<?xml version="1.0" standalone="no"?>
<!DOCTYPE svg PUBLIC "-//W3C//DTD SVG 20010904//EN"
 "http://www.w3.org/TR/2001/REC-SVG-20010904/DTD/svg10.dtd">
<svg version="1.0" xmlns="http://www.w3.org/2000/svg"
 width="773.000000pt" height="726.000000pt" viewBox="0 0 773.000000 726.000000"
 preserveAspectRatio="xMidYMid meet">

<g transform="translate(0.000000,726.000000) scale(0.100000,-0.100000)"
fill="#000000" stroke="none">
<path d="M3800 6374 c-120 -17 -165 -30 -213 -61 -28 -18 -57 -33 -64 -33 -16
0 -50 -19 -73 -41 -9 -9 -31 -22 -48 -30 -18 -8 -32 -17 -32 -21 0 -5 -7 -8
-15 -8 -8 0 -15 -4 -15 -9 0 -12 -166 -151 -180 -151 -6 0 -10 -6 -9 -12 3
-26 -2 -36 -38 -74 -20 -21 -38 -43 -39 -49 -1 -5 -12 -32 -24 -58 -54 -121
-73 -251 -56 -402 22 -197 42 -294 67 -323 10 -12 16 -43 18 -86 2 -66 1 -69
-30 -95 -22 -19 -30 -33 -26 -44 5 -15 10 -15 34 -5 37 16 43 26 43 68 0 19 5
51 10 70 6 19 22 95 35 168 15 81 35 152 51 183 30 61 49 213 28 227 -8 6 -11
66 -5 75 2 1 5 13 7 26 5 29 32 61 50 61 7 0 18 9 24 20 6 11 35 31 66 45 53
24 59 25 132 14 42 -6 91 -12 107 -13 17 -1 41 -6 54 -10 18 -6 28 -4 35 6 6
9 26 19 45 23 27 6 35 3 47 -14 9 -12 24 -21 34 -21 11 0 20 -8 22 -22 2 -14
14 -25 36 -32 18 -6 37 -18 42 -26 6 -8 10 -10 10 -4 0 7 18 21 40 33 32 16
45 19 60 11 11 -6 20 -15 20 -20 0 -16 15 -12 39 11 l22 21 23 -21 c23 -22 55
-27 71 -12 6 6 29 5 59 -2 49 -11 83 -44 73 -70 -6 -15 27 -49 37 -40 3 4 6 1
6 -5 0 -7 -4 -12 -10 -12 -5 0 -10 -8 -10 -17 0 -10 -12 -43 -26 -73 -14 -30
-27 -70 -30 -88 -3 -27 0 -34 21 -44 14 -6 25 -15 25 -20 0 -4 6 -8 14 -8 22
0 106 -87 106 -110 0 -24 -6 -25 -56 -4 -25 11 -72 18 -134 19 -52 1 -118 5
-145 9 -41 7 -53 5 -64 -8 -7 -9 -17 -13 -22 -10 -5 3 -9 0 -9 -5 0 -6 -7 -11
-15 -11 -13 0 -46 -26 -107 -83 -14 -13 -17 -26 -13 -50 3 -18 7 -55 9 -84 2
-48 7 -56 52 -100 28 -26 53 -56 57 -65 10 -28 28 -21 21 7 -12 49 -10 60 14
63 12 2 22 10 22 18 0 19 2 18 66 -12 75 -35 115 -39 209 -16 60 14 82 24 90
40 19 43 101 31 111 -17 3 -14 9 -38 14 -53 6 -18 4 -32 -5 -45 -8 -10 -15
-28 -15 -40 0 -13 -6 -23 -12 -23 -7 0 -22 -19 -32 -42 -11 -23 -27 -49 -36
-58 -8 -8 -22 -30 -29 -47 -16 -40 -126 -157 -140 -149 -6 4 -4 -9 5 -29 11
-27 12 -40 4 -53 -11 -16 -11 -16 -6 1 3 9 1 17 -4 17 -5 0 -12 9 -15 21 -4
12 -23 39 -42 60 -36 40 -74 51 -90 27 -23 -37 -37 -37 -108 -3 -73 35 -72 40
4 48 24 3 48 11 52 19 9 15 3 49 -16 93 -7 17 -18 48 -25 70 -16 56 -37 82
-52 67 -16 -16 -38 -15 -57 2 -13 11 -19 12 -32 3 -12 -9 -14 -19 -7 -46 9
-33 10 -33 53 -27 42 7 45 5 60 -24 9 -17 13 -35 10 -40 -12 -19 -66 -11 -88
14 l-21 24 -31 -21 c-16 -12 -32 -25 -33 -29 -6 -14 -59 -38 -82 -38 -12 0
-33 9 -47 20 -14 11 -36 20 -49 20 -36 0 -75 -22 -72 -39 3 -12 17 -16 65 -17
56 0 65 -3 102 -36 22 -21 55 -40 75 -43 43 -9 60 -27 52 -58 -3 -13 1 -32 9
-45 15 -20 14 -21 -22 -29 -21 -4 -66 -7 -100 -6 -35 0 -63 -2 -63 -6 0 -4
-36 -8 -80 -10 -68 -2 -80 1 -80 14 0 9 5 13 11 10 5 -4 19 1 30 11 10 9 19
12 19 7 0 -7 12 -8 33 -3 52 12 67 21 67 38 0 12 3 13 12 4 7 -7 25 -12 40
-12 25 0 28 3 26 29 -1 16 -6 27 -11 24 -4 -3 -17 3 -28 13 -17 16 -19 16 -19
0 0 -13 -6 -15 -25 -10 -17 4 -25 2 -25 -7 0 -11 -2 -11 -9 0 -7 12 -13 12
-24 3 -7 -7 -17 -9 -20 -5 -4 3 -7 -1 -7 -11 0 -9 -4 -14 -10 -11 -5 3 -10 0
-10 -8 0 -8 -7 -20 -15 -27 -8 -7 -15 -8 -15 -3 0 12 -55 9 -92 -6 -15 -6 -35
-8 -43 -5 -8 4 -15 1 -15 -6 0 -7 -6 -10 -13 -7 -22 8 -40 -55 -26 -86 15 -32
59 -44 91 -24 25 16 124 30 198 29 126 -2 242 -10 250 -18 5 -5 -5 -24 -23
-44 -31 -35 -32 -35 -124 -38 -99 -4 -116 -13 -102 -49 9 -25 5 -24 174 -28
50 -1 101 -8 114 -14 12 -7 28 -11 34 -8 7 2 20 -5 30 -15 17 -18 16 -19 -7
-41 -37 -35 -99 -69 -123 -69 -12 0 -24 -6 -27 -14 -5 -14 -52 -10 -72 7 -8 7
-19 7 -33 0 -12 -6 -30 -15 -41 -21 -28 -14 -77 -2 -83 22 -3 11 -10 17 -16
13 -6 -3 -11 -1 -11 5 0 12 -48 3 -69 -14 -12 -9 -13 -7 -9 11 5 19 4 20 -13
10 -16 -10 -21 -9 -29 3 -24 38 -36 50 -51 50 -21 0 -31 34 -15 51 6 7 -3 2
-21 -12 -36 -27 -40 -41 -18 -59 8 -7 15 -20 15 -29 -1 -15 -2 -15 -13 0 -7 9
-17 14 -23 12 -6 -2 -16 8 -23 23 -6 15 -14 24 -17 21 -3 -3 -14 2 -23 11 -10
10 -27 23 -39 31 -11 8 -23 25 -27 38 -3 13 -12 23 -19 23 -16 0 -29 27 -19
42 3 7 1 8 -5 4 -7 -4 -12 -1 -12 8 0 9 -4 16 -10 16 -5 0 -10 6 -10 13 -1 16
-28 52 -35 45 -3 -3 4 -34 16 -69 41 -122 88 -211 139 -265 28 -29 50 -57 50
-62 0 -4 14 -24 30 -42 17 -18 30 -41 30 -49 0 -22 47 -89 103 -147 26 -27 47
-54 47 -60 0 -6 15 -14 32 -18 43 -8 77 -23 168 -70 80 -41 137 -59 145 -45 3
4 26 -1 51 -11 25 -11 53 -20 63 -20 9 0 21 -4 26 -9 8 -7 130 4 212 19 7 1
61 61 109 123 32 39 75 91 96 114 80 89 194 296 181 330 -3 7 -17 13 -32 13
-57 0 -58 5 -22 172 18 84 35 177 38 206 3 28 8 52 11 52 3 0 18 -12 33 -26
33 -31 85 -36 123 -10 31 20 64 89 76 161 5 28 16 88 24 135 14 75 14 96 2
171 -16 98 -37 138 -76 145 l-26 6 23 106 c32 147 34 168 37 327 l3 140 -49
113 c-26 62 -48 115 -48 118 0 12 -93 142 -125 176 -20 21 -51 45 -70 54 -19
9 -37 24 -40 33 -8 27 -102 99 -179 138 -86 43 -205 82 -271 88 -80 7 -248 12
-275 9z m517 -1239 c0 -9 -11 -18 -24 -21 -19 -5 -21 -9 -12 -20 10 -12 2 -14
-47 -14 -33 0 -76 -4 -97 -9 -37 -9 -87 -45 -87 -63 0 -18 44 -7 66 17 30 33
43 32 57 -5 9 -24 18 -30 54 -36 23 -3 50 -13 60 -21 17 -13 16 -14 -10 -10
-15 2 -30 1 -33 -4 -14 -23 -174 20 -203 55 -12 14 -11 20 9 41 12 13 45 32
73 42 48 17 49 18 21 24 l-29 6 35 16 c48 22 167 23 167 2z m-140 -821 c26 -7
22 -23 -18 -65 -29 -31 -30 -31 -52 -13 -12 10 -23 19 -25 20 -1 1 2 13 7 27
6 14 20 27 33 30 13 2 25 5 28 6 3 0 15 -2 27 -5z m103 -6 c0 -26 -13 -58 -23
-58 -19 0 -36 34 -26 52 11 20 49 24 49 6z"/>
<path d="M3446 5298 c-8 -4 -33 -9 -55 -10 -22 -1 -38 -5 -35 -10 3 -4 -2 -8
-11 -8 -9 0 -14 4 -10 9 4 7 -44 -14 -84 -36 -2 -1 -5 -13 -6 -26 -3 -23 -2
-23 49 -15 86 13 220 13 254 -1 37 -15 41 -30 12 -38 -19 -5 -19 -6 -4 -18 15
-10 5 -13 -62 -18 -43 -4 -95 -9 -114 -13 -46 -9 -31 7 28 28 l47 16 -57 1
c-65 1 -105 -13 -114 -42 -8 -24 5 -37 53 -54 53 -18 70 -16 76 7 5 20 37 29
37 10 0 -24 41 -50 80 -50 34 0 42 4 52 25 13 29 33 28 33 -1 0 -13 6 -18 20
-16 36 5 45 11 39 27 -4 10 0 15 15 15 12 0 26 11 35 29 9 16 22 31 31 34 19
8 20 46 0 53 -8 4 -15 13 -15 20 0 8 -7 17 -15 20 -8 4 -15 14 -16 23 0 11 -2
12 -6 3 -4 -11 -8 -11 -22 1 -32 28 -202 54 -235 35z"/>
<path d="M2941 5084 c-21 -27 -26 -48 -35 -149 -7 -70 6 -58 28 28 16 61 39
102 63 111 12 5 13 9 3 21 -18 22 -36 18 -59 -11z"/>
<path d="M3540 4984 l-35 -14 34 5 c34 5 48 12 40 19 -2 2 -20 -3 -39 -10z"/>
<path d="M3020 4700 c0 -5 5 -10 11 -10 5 0 7 5 4 10 -3 6 -8 10 -11 10 -2 0
-4 -4 -4 -10z"/>
<path d="M3080 4570 c0 -5 5 -10 10 -10 6 0 10 5 10 10 0 6 -4 10 -10 10 -5 0
-10 -4 -10 -10z"/>
<path d="M3020 4520 c-9 -6 -10 -10 -3 -10 6 0 15 5 18 10 8 12 4 12 -15 0z"/>
<path d="M3365 4199 c4 -12 2 -24 -4 -28 -13 -8 14 -51 32 -51 7 0 6 4 -3 10
-12 8 -11 10 6 10 12 0 25 7 28 16 5 12 1 14 -15 9 -12 -4 -19 -3 -16 1 2 5 1
19 -4 32 -11 29 -33 30 -24 1z"/>
<path d="M5375 3616 c-68 -45 -110 -90 -151 -160 -52 -88 -63 -121 -85 -245
-24 -138 -19 -339 12 -461 10 -41 26 -106 34 -145 9 -38 23 -88 31 -110 8 -22
21 -76 29 -120 20 -114 43 -203 61 -230 13 -19 22 -23 52 -19 29 4 33 3 16 -5
-17 -7 -22 -21 -26 -61 -7 -67 6 -108 59 -195 24 -38 43 -75 43 -82 0 -7 22
-81 50 -164 54 -162 54 -183 3 -184 -18 0 -28 -5 -28 -14 0 -11 13 -15 44 -16
36 -1 49 -7 73 -34 l30 -34 45 45 45 45 -16 47 c-23 67 -20 81 21 126 34 38
35 43 26 75 -6 18 -8 53 -6 77 3 27 -1 63 -11 91 -24 72 -20 108 31 256 55
163 58 211 24 361 -23 96 -25 127 -25 355 -1 230 1 257 22 333 38 138 88 219
151 243 36 14 142 13 174 -2 35 -16 43 -7 22 25 -26 39 -102 83 -185 105 -41
12 -100 30 -130 42 -110 41 -177 61 -250 74 -111 21 -129 19 -185 -19z m302
-678 c-2 -13 -4 -5 -4 17 -1 22 1 32 4 23 2 -10 2 -28 0 -40z m-107 -113 c-7
-38 -16 -74 -20 -78 -4 -4 -37 -12 -74 -18 -61 -8 -90 -4 -115 17 -9 8 43 64
61 64 17 0 18 3 8 15 -10 12 -9 16 6 21 42 14 103 49 120 70 l19 21 4 -21 c2
-11 -3 -52 -9 -91z m-299 55 c15 0 19 -7 19 -39 0 -22 -5 -41 -11 -43 -6 -2
-11 -16 -11 -31 0 -21 -5 -27 -23 -27 -20 0 -23 6 -29 65 -7 71 -2 90 21 81 8
-3 23 -6 34 -6z m413 -309 c3 -68 4 -122 1 -119 -9 8 -27 219 -21 235 11 28
14 10 20 -116z m-444 59 c0 -5 -4 -10 -10 -10 -5 0 -10 5 -10 10 0 6 5 10 10
10 6 0 10 -4 10 -10z m457 -242 c-3 -8 -6 -5 -6 6 -1 11 2 17 5 13 3 -3 4 -12
1 -19z m-177 -238 c-8 -5 -29 -10 -45 -10 -17 0 -36 -5 -43 -12 -9 -9 -15 -9
-24 0 -9 9 -8 12 3 16 20 7 59 13 94 14 23 1 26 -1 15 -8z m110 -33 l-1 -22
-19 24 c-26 30 -26 45 0 31 11 -6 20 -21 20 -33z"/>
<path d="M3431 3436 c-13 -15 -5 -196 9 -196 12 0 57 -93 80 -170 19 -60 33
-84 71 -123 25 -26 46 -53 46 -60 -2 -52 27 -73 43 -31 6 13 21 39 35 57 33
40 95 176 89 192 -3 7 -35 14 -80 18 -89 7 -142 33 -221 110 -49 48 -66 77
-44 77 24 0 19 129 -5 137 -6 2 -16 -3 -23 -11z"/>
<path d="M3928 3419 c-30 -22 -36 -39 -14 -39 19 0 67 40 61 51 -9 13 -16 11
-47 -12z"/>
<path d="M4790 3416 c0 -9 -7 -30 -15 -46 -9 -17 -12 -30 -7 -30 12 0 37 78
29 87 -4 3 -7 -1 -7 -11z"/>
<path d="M4217 3373 c-15 -14 -7 -43 12 -43 32 0 32 -15 1 -55 -35 -44 -36
-51 -10 -58 31 -8 8 -56 -52 -108 -95 -81 -174 -167 -202 -219 -24 -44 -25
-50 -9 -42 10 6 48 40 83 77 36 37 89 83 119 102 66 42 177 130 210 167 l24
26 -24 26 c-124 137 -135 145 -152 127z"/>
<path d="M2960 3307 c-58 -29 -140 -76 -183 -106 -105 -73 -242 -208 -311
-306 -30 -44 -73 -105 -94 -135 -22 -30 -57 -89 -79 -130 -22 -41 -50 -91 -61
-110 -12 -19 -49 -98 -83 -175 -70 -159 -77 -209 -39 -269 12 -20 27 -39 34
-43 35 -22 71 -108 59 -139 -4 -10 -9 -10 -24 -1 -14 9 -24 9 -37 1 -14 -9
-17 -25 -16 -85 0 -83 29 -246 46 -267 7 -8 53 -48 103 -90 86 -74 100 -85
155 -132 39 -34 90 -63 98 -56 3 4 1 11 -6 15 -26 16 -55 88 -60 149 -4 54 -9
67 -34 90 -17 15 -36 41 -44 59 -19 44 -18 211 1 305 19 89 96 328 137 423
109 249 139 295 298 460 64 66 123 131 131 145 35 56 70 173 84 274 7 58 21
120 29 138 26 50 29 51 -104 -15z"/>
<path d="M3156 3083 c-15 -38 -30 -79 -32 -93 -5 -23 -2 -22 29 13 19 21 47
56 62 77 23 33 25 42 15 55 -26 31 -45 17 -74 -52z"/>
</g>
</svg>
